<?xml version="1.0" encoding="UTF-8" standalone="no"?>
<!-- Created with Inkscape (http://www.inkscape.org/) -->

<svg
   xmlns:dc="http://purl.org/dc/elements/1.1/"
   xmlns:cc="http://creativecommons.org/ns#"
   xmlns:rdf="http://www.w3.org/1999/02/22-rdf-syntax-ns#"
   xmlns:svg="http://www.w3.org/2000/svg"
   xmlns="http://www.w3.org/2000/svg"
   xmlns:sodipodi="http://sodipodi.sourceforge.net/DTD/sodipodi-0.dtd"
   xmlns:inkscape="http://www.inkscape.org/namespaces/inkscape"
   width="13.447254mm"
   height="14.15151mm"
   viewBox="0 0 13.447255 14.151511"
   version="1.1"
   id="svg1107"
   inkscape:version="0.92.5 (2060ec1f9f, 2020-04-08)"
   sodipodi:docname="icon.svg"
   inkscape:export-filename="/home/anwaldt/WORK/2023_Music_Interaction_Systems/Public_Docs/docs/graphics/icon.png"
   inkscape:export-xdpi="499"
   inkscape:export-ydpi="499">
  <defs
     id="defs1101" />
  <sodipodi:namedview
     id="base"
     pagecolor="#ffffff"
     bordercolor="#666666"
     borderopacity="1.0"
     inkscape:pageopacity="0.0"
     inkscape:pageshadow="2"
     inkscape:zoom="25.877768"
     inkscape:cx="20.395053"
     inkscape:cy="29.181548"
     inkscape:document-units="mm"
     inkscape:current-layer="layer1"
     showgrid="false"
     fit-margin-top="0.3"
     fit-margin-left="0.3"
     fit-margin-right="0.3"
     fit-margin-bottom="0.3"
     inkscape:window-width="2560"
     inkscape:window-height="1379"
     inkscape:window-x="0"
     inkscape:window-y="29"
     inkscape:window-maximized="1" />
  <metadata
     id="metadata1104">
    <rdf:RDF>
      <cc:Work
         rdf:about="">
        <dc:format>image/svg+xml</dc:format>
        <dc:type
           rdf:resource="http://purl.org/dc/dcmitype/StillImage" />
        <dc:title></dc:title>
      </cc:Work>
    </rdf:RDF>
  </metadata>
  <g
     inkscape:label="Layer 1"
     inkscape:groupmode="layer"
     id="layer1"
     transform="translate(22.643881,-52.744387)">
    <path
       style="fill:none;stroke:#000000;stroke-width:0.40166634px;stroke-linecap:butt;stroke-linejoin:miter;stroke-opacity:1"
       d="m -21.764889,58.578579 c -0.0608,-0.23634 -0.18237,-0.4654 -0.18237,-0.70902 0,-0.0835 0.14398,-0.10251 0.18237,-0.17724 0.0544,-0.10566 -0.0544,-0.24881 0,-0.3545 0.60488,-0.58787 -0.0859,0.16711 0.18239,-0.35451 0.0768,-0.14951 0.28786,-0.20503 0.36476,-0.35451 0.0273,-0.0528 -0.0273,-0.12437 0,-0.17725 0.0768,-0.14951 0.28786,-0.20503 0.36476,-0.3545 0.0273,-0.0528 -0.0273,-0.12437 0,-0.17726 0.0487,-0.0947 0.45112,-0.43843 0.54713,-0.53174 0.0961,-0.0934 0.44975,-0.48443 0.54715,-0.53177 0.0544,-0.0265 0.12796,0.0263 0.18238,0 0.21886,-0.10641 0.32828,-0.42541 0.54715,-0.53176 0.0544,-0.0265 0.12797,0.0265 0.18237,0 0.19466,-0.0946 0.1701,-0.25992 0.36476,-0.3545 0.0544,-0.0265 0.12797,0.0265 0.18239,0 0.0768,-0.0374 0.10548,-0.13993 0.18237,-0.17726 0.0544,-0.0263 0.12797,0.0265 0.18239,0 0.0768,-0.0374 0.10548,-0.13993 0.18237,-0.17724 0.14598,-0.0709 0.40124,0.0709 0.54715,0 0.0768,-0.0374 0.10548,-0.13994 0.18238,-0.17726 0.12089,-0.0587 0.57667,0.0495 0.72952,0 0.12905,-0.0418 0.2358,-0.13545 0.36476,-0.17725 0.10949,-0.0355 0.76637,0 0.91191,0 0.1215,0 0.24317,0 0.36476,0 0.0608,0 0.12796,-0.0263 0.18239,0 0.15383,0.0747 0.20162,0.30166 0.36475,0.35451 0.11534,0.0374 0.24941,-0.0374 0.36476,0 0.0816,0.0265 0.10549,0.13993 0.18238,0.17724 0.0543,0.0265 0.12796,-0.0263 0.18238,0 0.0769,0.0374 0.10549,0.13993 0.18238,0.17726 0.0543,0.0265 0.12796,-0.0265 0.18238,0 0.0768,0.0374 0.10549,0.13993 0.18239,0.17726 0.19451,0.0946 0.17025,-0.0946 0.36476,0 0.0973,0.0473 0.26742,0.30719 0.36476,0.3545 0.0544,0.0263 0.12797,-0.0265 0.18239,0 0.0768,0.0374 0.1215,0.11808 0.18237,0.17724 0.0608,0.0591 0.15519,0.098 0.18239,0.17726 0.0385,0.1121 -0.0385,0.24239 0,0.35451 0.0443,0.12945 0.6851,0.57953 0.72951,0.709 0.0385,0.1121 -0.0385,0.24241 0,0.3545 0.0544,0.15854 0.26938,0.21547 0.36476,0.35451 0.0608,0.11823 0.12166,0.23634 0.18238,0.35451 0,0.0591 -0.0271,0.12437 0,0.17725 0.0385,0.0747 0.15519,0.098 0.18238,0.17726 0.0755,0.22013 -0.0599,0.65321 0,0.88626 0.033,0.12811 0.1393601,0.22916 0.1823901,0.3545 0.0192,0.056 0,0.11809 0,0.17725 0,0.17413 -0.0402,0.94628 0,1.06351 0.043,0.12541 0.13936,0.22917 0.18237,0.35451 0.0402,0.11719 0,1.05061 0,1.24077 0,0.17725 0.0577,0.36359 0,0.53175 -0.0273,0.0793 -0.15519,0.098 -0.18237,0.17726 -0.0385,0.11209 0.0385,0.2424 0,0.3545 -0.0273,0.0793 -0.1439801,0.10252 -0.1823901,0.17724 -0.0272,0.0528 0.0273,0.12437 0,0.17726 -0.0385,0.0747 -0.13474,0.10776 -0.18238,0.17726 -0.0755,0.11 -0.10703,0.24458 -0.18238,0.3545 -0.1789,0.26082 -0.55061,0.44818 -0.72952,0.70901 -0.17718,0.2583 -0.11379,0.3692 -0.36475,0.53176 -0.11303,0.0733 -0.26864,0.0838 -0.36476,0.17725 -0.22215,0.2159 -0.0855,0.39601 -0.36478,0.53176 -0.0544,0.0263 -0.13936,-0.0418 -0.18237,0 -0.043,0.0417 0.043,0.13544 0,0.17726 -0.043,0.0418 -0.12797,-0.0265 -0.18239,0 -0.0768,0.0374 -0.10548,0.13993 -0.18237,0.17724 -0.10872,0.0528 -0.25601,-0.0528 -0.36477,0 -0.0768,0.0374 -0.10549,0.13993 -0.18238,0.17726 -0.0544,0.0265 -0.12796,-0.0263 -0.18238,0 -0.0769,0.0374 -0.10549,0.13993 -0.18238,0.17724 -0.0543,0.0265 -0.12796,-0.0263 -0.18238,0 -0.0768,0.0374 -0.10087,0.15083 -0.18238,0.17726 -0.16413,0.0531 -0.383,-0.0531 -0.54714,0 -0.12889,0.0418 -0.23579,0.13545 -0.36476,0.17725 -0.12058,0.0391 -1.08101,0 -1.27667,0 -0.30396,0 -0.60792,0 -0.9119,0 -0.0608,0 -0.12166,0 -0.18239,0 -0.0608,0 -0.12797,0.0265 -0.18237,0 -0.0768,-0.0374 -0.10549,-0.13994 -0.18239,-0.17725 -0.10872,-0.0528 -0.25599,0.0528 -0.36476,0 -0.0768,-0.0374 -0.10548,-0.13993 -0.18237,-0.17726 -0.0544,-0.0263 -0.12797,0.0265 -0.18239,0 -0.0768,-0.0374 -0.10548,-0.13993 -0.18237,-0.17724 -0.0544,-0.0263 -0.12797,0.0265 -0.18239,0 -0.0768,-0.0374 -0.10548,-0.13993 -0.18237,-0.17726 -0.0544,-0.0265 -0.12165,0 -0.18239,0 -0.12165,-0.0591 -0.25165,-0.10401 -0.36476,-0.17724 -0.0716,-0.0464 -0.10086,-0.15085 -0.18238,-0.17726 -0.83025,0 -0.0108,0.0835 -0.54715,-0.17726 -0.0544,-0.0263 -0.13936,0.0418 -0.18237,0 -0.043,-0.0418 0.043,-0.13544 0,-0.17725 -0.043,-0.0418 -0.13936,0.0418 -0.18239,0 -0.043,-0.0418 0.0273,-0.12436 0,-0.17725 -0.0768,-0.14952 -0.28786,-0.20503 -0.36476,-0.35451 -0.0271,-0.0528 0.0273,-0.12437 0,-0.17724 -0.0768,-0.14951 -0.28785,-0.20504 -0.36476,-0.3545 -0.0273,-0.0528 0.0273,-0.12437 0,-0.17726 -0.0385,-0.0747 -0.14398,-0.10252 -0.18237,-0.17726 -0.0273,-0.0528 0,-0.11808 0,-0.17725 -0.0608,-0.0591 -0.14398,-0.10251 -0.18239,-0.17725 -0.0544,-0.10567 0.0544,-0.24882 0,-0.35451 -0.0385,-0.0747 -0.14398,-0.10251 -0.18237,-0.17726 -0.0544,-0.10566 0.0544,-0.24879 0,-0.3545 -0.0385,-0.0747 -0.14398,-0.10252 -0.18239,-0.17724 -0.0271,-0.0528 0,-0.11823 0,-0.17726 0,-0.0591 0,-0.11823 0,-0.17725 0,-0.23634 0,-0.47267 0,-0.709 0,-0.11823 0,-0.23635 0,-0.35452 0,-0.0591 -0.0192,-0.12122 0,-0.17724 0.51666,-1.00426 -0.0679,0.26422 0.18239,-0.70902 0.033,-0.12811 0.16315,-0.22372 0.18237,-0.35451 0.043,-0.29243 0,-0.59083 0,-0.88625 z"
       id="path5628"
       inkscape:connector-curvature="0" />
    <path
       style="opacity:1;fill:#121212;fill-opacity:1;stroke:none;stroke-width:0.47636613;stroke-linecap:round;stroke-linejoin:round;stroke-miterlimit:4;stroke-dasharray:none;stroke-dashoffset:0;stroke-opacity:1;paint-order:normal"
       d="m -18.086459,65.797199 c -0.30093,-0.1338 -0.93472,-0.41557 -1.40843,-0.62602 -1.51254,-0.67195 -2.49253,-2.61575 -2.23592,-4.43494 0.0771,-0.54724 0.15935,-1.49552 0.18257,-2.10729 0.0359,-0.94633 0.14152,-1.25767 0.70746,-2.08604 0.55011,-0.80524 2.55308,-2.5237 3.00235,-2.5759 0.0642,-0.007 0.28086,-0.0498 0.48148,-0.0943 0.20062,-0.0445 0.52892,-0.10566 0.72952,-0.13604 0.20062,-0.0304 0.55072,-0.11329 0.77798,-0.18437 0.68719,-0.21476 4.05512,1.07845 4.05512,1.55708 0,0.12886 0.16414,0.37864 0.36476,0.55509 0.20062,0.17646 0.36476,0.468 0.36476,0.64786 0,0.17986 0.0688,0.32704 0.15306,0.32704 0.30603,0 0.54245,0.86073 0.75835,2.76083 0.3143701,2.76686 0.1888101,3.10275 -1.96893,5.26654 -0.84765,0.85001 -1.95275,1.23253 -3.77561,1.3069 -1.1345,0.0462 -1.8104,-0.007 -2.18857,-0.17644 z"
       id="path5630"
       inkscape:connector-curvature="0" />
    <path
       style="fill:none;stroke:#ffffff;stroke-width:0.626;stroke-linecap:round;stroke-linejoin:miter;stroke-miterlimit:4;stroke-dasharray:none;stroke-opacity:1"
       d="m -12.052439,55.329559 c -0.80642,0 -10e-4,0.0344 -0.41657,-0.0461 -0.0385,-0.007 -0.0793,0 -0.11904,0 -0.0596,0 -0.11903,0 -0.17852,0 -0.11904,0 -0.23806,0 -0.35708,0 -0.21819,0 -0.43639,0 -0.6546,0 -0.0793,0 -0.1593,-0.007 -0.23804,0 -0.0812,0.007 -0.15688,0.0383 -0.23804,0.0461 -0.0787,0.007 -0.15918,-0.007 -0.23805,0 -0.10056,0.009 -0.1969,0.0383 -0.29755,0.0461 -0.21711,0.0169 -0.4373,-0.0153 -0.6546,0 -0.10071,0.007 -0.19683,0.0391 -0.29756,0.0461 -0.11857,0.009 -0.23803,0 -0.35705,0 -0.11904,0 -0.23804,0 -0.35706,0 -0.0992,0 -0.19878,-0.007 -0.29756,0 -0.12012,0.009 -0.23689,0.0377 -0.35706,0.0461 -0.0987,0.007 -0.19836,0 -0.29754,0 -0.21821,0 -0.43642,0 -0.65462,0 -0.53558,0 -1.07118,0 -1.60676,0 -0.0488,0 -0.259,-0.0105 -0.29756,0 -0.042,0.0105 -0.077,0.0353 -0.11904,0.0461 -0.0377,0.0105 -0.091,-0.0217 -0.11903,0 -0.0139,0.0105 0.0139,0.0353 0,0.0461 -0.0139,0.0105 -0.0596,-0.0154 -0.0596,0 0,0.015 0.10256,0.0666 0.11904,0.0923 0.009,0.0135 -0.0139,0.0353 0,0.0461 0.0139,0.0105 0.0454,-0.0105 0.0594,0 0.0139,0.0105 -0.0139,0.0353 0,0.0461 0.0139,0.0105 0.0454,-0.0105 0.0596,0 0.0139,0.0105 -0.0139,0.0353 0,0.0461 0.0139,0.0105 0.0454,-0.0105 0.0594,0 0.0139,0.0105 -0.0139,0.0353 0,0.0461 0.0139,0.0105 0.0417,-0.007 0.0596,0 0.0251,0.0105 0.0396,0.0307 0.0594,0.0461 0.0594,0.0462 0.11904,0.0923 0.17854,0.13843 0.0199,0.0154 0.0362,0.0341 0.0594,0.0461 0.0108,0.006 0.23424,0.0893 0.23806,0.0923 0.17721,0.13739 -0.089,0.06 0.17852,0.18452 0.0537,0.025 0.12473,0.0211 0.17853,0.0461 0.0481,0.0223 0.0752,0.0651 0.11904,0.0923 0.0559,0.0346 0.11904,0.0615 0.17854,0.0922 0.11903,0.0615 0.23804,0.12303 0.35706,0.18454 0.0596,0.0307 0.11903,0.0615 0.17853,0.0922 0.0596,0.0307 0.11457,0.0675 0.17853,0.0922 0.0562,0.0217 0.12242,0.0244 0.17853,0.0461 0.0639,0.0248 0.11904,0.0615 0.17853,0.0922 0.11903,0.0615 0.23804,0.12302 0.35706,0.18451 0.17853,0.0922 0.35706,0.18454 0.53559,0.27679 0.0594,0.0307 0.12274,0.0576 0.17853,0.0922 0.15965,0.0989 0.10055,0.0974 0.23804,0.23064 0.0701,0.0679 0.16794,0.11659 0.23805,0.18452 0.13752,0.1332 0.0784,0.1317 0.23803,0.23066 0.0696,0.0837 0.20502,0.0846 0.29755,0.13843 0.045,0.026 0.0793,0.0615 0.11904,0.0922 0.0793,0.0615 0.15869,0.12302 0.23804,0.18451 0.0396,0.0307 0.0741,0.0662 0.11903,0.0922 0.0354,0.0207 0.0876,0.0219 0.11904,0.0461 0.0313,0.0242 0.0329,0.0648 0.0596,0.0922 0.055,0.0569 0.18753,0.12587 0.23804,0.18452 0.0579,0.0672 0.0371,0.0961 0.11904,0.13844 0.037,0.019 0.0821,0.0271 0.11903,0.0461 0.0467,0.0241 0.0658,0.0786 0.11904,0.0922 0.0377,0.0105 0.0815,-0.0105 0.11903,0 0.0533,0.0135 0.0724,0.0681 0.11904,0.0923 0.0396,0.0154 0.0793,0.0307 0.11904,0.0461 0.0199,0 0.0417,-0.007 0.0596,0 0.0251,0.009 0.0329,0.0392 0.0596,0.0461 0.0377,0.009 0.0813,-0.0105 0.11904,0 0.0266,0.007 0.0343,0.0364 0.0596,0.0461 0.0177,0.007 0.0417,-0.007 0.0594,0 0.0502,0.0195 0.0688,0.0729 0.11903,0.0922 0.0354,0.0135 0.091,-0.0217 0.11904,0 0.0139,0.0105 -0.0139,0.0353 0,0.0461 0.028,0.0217 0.11903,-0.0307 0.11903,0 0,0.0154 -0.0417,-0.007 -0.0594,0 -0.0251,0.0105 -0.0343,0.0364 -0.0596,0.0461 -0.0177,0.007 -0.0417,-0.007 -0.0594,0 -0.0251,0.0105 -0.0362,0.0341 -0.0594,0.0461 -0.037,0.019 -0.0793,0.0307 -0.11903,0.0461 -0.43148,0.16724 0.0941,-0.0486 -0.17854,0.0922 -0.10964,0.0566 -0.24404,0.0859 -0.35706,0.13843 -0.36633,0.17039 -0.0173,0.0105 -0.29754,0.18452 -0.11164,0.0693 -0.24717,0.11359 -0.35706,0.18453 -0.0647,0.0418 -0.1138,0.0967 -0.17854,0.13844 -0.055,0.0355 -0.1235,0.0567 -0.17852,0.0922 -0.0647,0.0418 -0.1101,0.10042 -0.17854,0.13844 -0.0722,0.04 -0.16585,0.0522 -0.23804,0.0922 -0.0685,0.0379 -0.1101,0.10042 -0.17852,0.13844 -0.23246,0.0901 -0.22031,0.0759 -0.41658,0.18453 -0.0807,0.0446 -0.15733,0.0937 -0.23804,0.13843 -0.0582,0.0322 -0.12365,0.0567 -0.17853,0.0922 -0.0647,0.0418 -0.11457,0.0959 -0.17853,0.13843 -0.0753,0.05 -0.16273,0.0883 -0.23804,0.13844 -0.16968,0.11269 -0.30441,0.25814 -0.47608,0.36903 -0.055,0.0355 -0.12273,0.0576 -0.17853,0.0924 -0.0439,0.0271 -0.0793,0.0615 -0.11904,0.0922 -0.0793,0.0615 -0.15869,0.12302 -0.23804,0.18451 -0.0396,0.0307 -0.0741,0.0661 -0.11903,0.0923 -0.0354,0.0207 -0.0835,0.0254 -0.11904,0.0461 -0.045,0.0262 -0.0741,0.0661 -0.11903,0.0923 -0.30674,0.17832 0.0687,-0.0861 -0.23804,0.0922 -0.0673,0.0392 -0.10857,0.10222 -0.17853,0.13844 -0.0368,0.019 -0.0876,0.0219 -0.11903,0.0461 -0.0313,0.0242 -0.0282,0.0679 -0.0594,0.0922 -0.0314,0.0242 -0.0835,0.0254 -0.11904,0.0462 -0.0741,0.0431 -0.22965,0.17801 -0.29756,0.23065 -0.0199,0.0154 -0.0362,0.034 -0.0596,0.0461 -0.0368,0.019 -0.0876,0.0219 -0.11904,0.0461 -0.0314,0.0242 -0.0282,0.0679 -0.0596,0.0922 -0.003,0.003 -0.22695,0.0865 -0.23804,0.0923 -0.0876,0.0452 -0.15045,0.13933 -0.23804,0.18452 -0.0368,0.019 -0.0821,0.0271 -0.11903,0.0461 -0.0467,0.0241 -0.0793,0.0615 -0.11904,0.0922 -0.0793,0.0615 -0.1587,0.12303 -0.23804,0.18454 -0.0199,0.0154 -0.0343,0.0364 -0.0596,0.0461 -0.0821,0.0319 -0.0533,-0.0558 -0.11904,0.0461 -0.009,0.0135 0.0139,0.0353 0,0.0461 -0.0139,0.0105 -0.0454,-0.0105 -0.0594,0 -0.0139,0.0105 0,0.0307 0,0.0461 0,0.0154 -0.0139,0.0353 0,0.0462 0.0139,0.0105 0.0406,-0.004 0.0594,0 0.042,0.0105 0.077,0.0353 0.11904,0.0461 0.0536,0.0135 0.12504,-0.0135 0.17852,0 0.0266,0.007 0.0329,0.0392 0.0596,0.0461 0.0377,0.009 0.0793,0 0.11904,0 0.0397,0 0.0793,0 0.11903,0 0.11904,0 0.23803,0 0.35705,0 0.0397,0 0.0805,0.007 0.11903,0 0.0431,-0.009 0.0761,-0.0377 0.11904,-0.0461 0.0385,-0.007 0.0793,0 0.11903,0 0.0992,0 0.19837,0 0.29756,0 0.17854,0 0.35706,0 0.5356,0 0.0594,0 0.11903,0 0.17852,0 0.0594,0 0.11981,-0.007 0.17854,0 0.0619,0.007 0.11657,0.0382 0.17852,0.0461 0.0587,0.007 0.11904,0 0.17854,0 0.1389,0 0.27771,0 0.41656,0 0.0596,0 0.11965,-0.006 0.17852,0 0.081,0.009 0.15709,0.0373 0.23806,0.0461 0.16284,0.018 0.23044,-0.0207 0.41656,0 0.0621,0.007 0.11672,0.0382 0.17852,0.0461 0.0587,0.007 0.11904,0 0.17854,0 0.19837,0 0.39674,0 0.5951,0 0.19837,0 0.39674,0 0.5951,0 0.0594,0 0.1198,0.007 0.17854,0 0.0619,-0.007 0.11703,-0.0365 0.17853,-0.0461 0.0388,-0.006 0.0793,0 0.11904,0 0.0992,0 0.19837,0 0.29756,0 0.0992,0 0.19837,0 0.29755,0 0.0397,0 0.0801,0.006 0.11904,0 0.0616,-0.009 0.11703,-0.0365 0.17854,-0.0461 0.0942,-0.015 0.26797,0.0172 0.35706,0 0.0431,-0.009 0.0761,-0.0377 0.11903,-0.0461 0.0385,-0.007 0.0793,0 0.11904,0 0.11903,0 0.23804,0 0.35706,0 0.31739,0 0.63476,0 0.95216,0"
       id="path6157"
       inkscape:connector-curvature="0" />
  </g>
</svg>
